<?xml version="1.0" encoding="UTF-8"?>
<svg width="46px" height="51px" viewBox="0 0 46 51" version="1.1" xmlns="http://www.w3.org/2000/svg" xmlns:xlink="http://www.w3.org/1999/xlink">
    <!-- Generator: Sketch 50.2 (55047) - http://www.bohemiancoding.com/sketch -->
    <title>ico-pluma</title>
    <desc>Created with Sketch.</desc>
    <defs>
        <polygon id="path-1" points="0 0 45.9564822 0 45.9564822 48.8188024 0 48.8188024"></polygon>
    </defs>
    <g id="Page-1" stroke="none" stroke-width="1" fill="none" fill-rule="evenodd">
        <g id="Desktop-HD-REPOSITORIO" transform="translate(-456.000000, -725.000000)">
            <g id="ico-pluma" transform="translate(456.000000, 725.000000)">
                <g id="Group-3">
                    <g id="Fill-1-Clipped">
                        <mask id="mask-2" fill="white">
                            <use xlink:href="#path-1"></use>
                        </mask>
                        <g id="path-1"></g>
                        <path d="M45.9096464,-1.99260152e-05 C46.0316811,0.914783432 45.885,1.82490418 45.8120586,2.72944564 C45.5814599,5.58972549 45.2476855,8.44064012 44.6373124,11.2484149 C44.1541627,13.4706638 43.5830043,15.6696988 42.6443449,17.7570485 C42.481,18.120499 42.2429176,18.281302 41.8731215,18.3604083 C39.0324967,18.9682514 36.194167,19.5863564 33.3566356,20.2083469 C33.2200325,20.2382359 33.0073948,20.193502 32.9648872,20.3618769 C32.9216811,20.5327424 33.124141,20.5949116 33.2399892,20.6731212 C35.3733514,22.1126762 37.674449,22.8233375 40.2636204,22.2700917 C40.4036161,22.2402027 40.5686573,22.1273218 40.687,22.2558446 C40.8273948,22.4082786 40.6772213,22.5727679 40.6188482,22.7146411 C39.1166139,26.352733 37.2306139,29.770742 34.8023926,32.8832852 C33.4469393,34.6207341 31.8733601,36.1304286 30.1513037,37.496357 C29.730718,37.8300181 29.334679,37.9559505 28.761026,37.8048117 C26.4001584,37.1828211 24.0422842,36.5583398 21.7431822,35.7303143 C21.6238416,35.6873737 21.4826486,35.5825628 21.3682972,35.6815951 C21.2274035,35.8037416 21.3374642,35.9640464 21.3832646,36.0979492 C21.9887484,37.872062 23.0457505,39.2972702 24.6569479,40.2880913 C25.2506573,40.6532356 25.2510564,40.7098255 24.6335987,41.0668 C23.428718,41.7632142 22.112679,42.06599 20.739564,42.1793691 C17.5700542,42.4410973 14.6142798,41.6031087 11.7345401,40.4130275 C11.3089653,40.23728 11.0495293,40.3141944 10.7149566,40.5781145 C7.33729935,43.2438168 3.94836659,45.8951724 0.559234273,48.5462291 C0.411854664,48.6614015 0.288422993,48.8425289 -4.98915401e-05,48.8162266 C0.270561822,47.7042553 0.722579176,46.7045671 1.50168547,45.8858072 C4.10053579,43.154349 6.71455315,40.4373372 9.32707375,37.7190302 C9.50538612,37.5334194 9.62951627,37.3365503 9.6941757,37.0851837 C10.128731,35.3906753 10.741898,33.7590336 11.5613167,32.2157637 C12.3648698,30.7021836 13.3452386,29.2972999 14.4943406,28.0237286 C15.9650434,26.3937806 17.6629523,25.0013506 19.2993948,23.5454563 C21.3203015,21.747532 23.3301323,19.9372535 25.353833,18.1424177 C27.5645271,16.1816978 29.7912863,14.2388117 32.0006833,12.2764977 C33.9483492,10.5466207 35.8755597,8.79372911 37.8229262,7.06345358 C40.4797505,4.70281855 43.1469523,2.35393988 45.8098633,-1.99260152e-05 L45.9096464,-1.99260152e-05 Z" id="Fill-1" fill="#FFFFFF" fill-rule="nonzero" mask="url(#mask-2)"></path>
                    </g>
                </g>
                <path d="M26.2183885,51 C25.6796638,50.811327 25.1300796,50.6743563 24.7119928,50.2129442 C24.0444361,49.4760877 23.887271,48.6758057 24.3090105,47.7785321 C24.6812904,46.9863662 24.5623306,46.7708401 23.6808438,46.7317629 C22.8190026,46.6934872 21.9861857,46.9365677 21.1452735,47.0743401 C17.075468,47.741058 13.0095126,48.432625 8.94306356,49.1203845 C6.70810109,49.4983316 4.47471818,49.8860981 2.24044676,50.2681533 C2.19523219,50.2758686 2.14764829,50.2691553 2.09090909,50.2691553 C2.0811098,50.026676 2.28339074,49.9704649 2.41024823,49.8614494 C3.04996539,49.3120634 3.72413645,48.806464 4.352007,48.2401445 C5.21513156,47.4617058 6.35250523,47.5639078 7.38691208,47.3818479 C11.4489186,46.6667343 15.5151702,45.9753677 19.5858642,45.3139603 C20.9291715,45.0958291 22.2604348,44.7629711 23.6327663,44.755102 C24.201305,44.7519493 24.7406221,44.8926274 25.2524946,45.1355075 C26.484345,45.7199628 26.8928558,46.8871701 26.3095087,48.1367401 C25.9906374,48.8194897 26.0929131,49.0049564 26.8486284,49.0402261 C28.0604383,49.0969382 29.2267375,48.7724968 30.4049819,48.5632833 C33.7222313,47.9743191 37.0365191,47.3688222 40.3519915,46.7702389 C41.2227176,46.6130282 42.0865332,46.3972016 42.9735484,46.3647374 C43.4520529,46.3472027 43.8212724,46.7024049 43.8974856,47.17043 C43.9669857,47.5969732 43.7184043,48.0519726 43.3105846,48.2198043 C43.1749409,48.2757148 43.0282403,48.3100828 42.8835142,48.3363347 C40.1358895,48.8346196 37.3876724,49.3290971 34.639949,49.8267809 C32.4905784,50.2160504 30.3418987,50.6088268 28.1928242,51 L26.2183885,51 Z" id="Fill-4" fill="#FFFFFF" fill-rule="nonzero"></path>
            </g>
        </g>
    </g>
</svg>